<svg xmlns="http://www.w3.org/2000/svg" version="1.1" xmlns:xlink="http://www.w3.org/1999/xlink" xmlns:svgjs="http://svgjs.dev/svgjs" width="1440" height="800" preserveAspectRatio="none" viewBox="0 0 1440 800"><g mask="url(&quot;#SvgjsMask1007&quot;)" fill="none"><path d="M294.08 765.55L347.2 765.55L347.2 776.94L294.08 776.94z" stroke="#e73635"></path><path d="M328.86 87.96 a67.04 67.04 0 1 0 134.08 0 a67.04 67.04 0 1 0 -134.08 0z" fill="#037b0b"></path><path d="M10.81 51.32 a57.93 57.93 0 1 0 115.86 0 a57.93 57.93 0 1 0 -115.86 0z" fill="#037b0b"></path><path d="M598.13 94.53L657.71 94.53L657.71 97.55L598.13 97.55z" stroke="#d3b714"></path><path d="M1060.18 37.2L1113.27 37.2L1113.27 40.08L1060.18 40.08z" stroke="#d3b714"></path><path d="M60.05 23.33L98.38 23.33L98.38 88.8L60.05 88.8z" stroke="#037b0b"></path><path d="M761.4 513.24 a7.34 7.34 0 1 0 14.68 0 a7.34 7.34 0 1 0 -14.68 0z" fill="#037b0b"></path><path d="M1031.16 299.57L1103.79 299.57L1103.79 310.99L1031.16 310.99z" stroke="#d3b714"></path><path d="M771.38 229.62 a26.28 26.28 0 1 0 52.56 0 a26.28 26.28 0 1 0 -52.56 0z" fill="#d3b714"></path><path d="M167.59 151.11L245.69 151.11L245.69 229.21L167.59 229.21z" stroke="#d3b714"></path><path d="M108.94 438.36a61.56 61.56 0 1 0 76.57-96.42z" fill="#d3b714"></path><path d="M550.05 144.72L610.81 144.72L610.81 184.36L550.05 184.36z" stroke="#037b0b"></path><path d="M970.22 120.43L986.71 120.43L986.71 121.59L970.22 121.59z" stroke="#e73635"></path><path d="M1121.38 380.61 a40.14 40.14 0 1 0 80.28 0 a40.14 40.14 0 1 0 -80.28 0z" stroke="#d3b714"></path><path d="M1333.33 709.79L1347.63 709.79L1347.63 724.09L1333.33 724.09z" stroke="#037b0b"></path><path d="M209.51 578.43L238.34 578.43L238.34 648.14L209.51 648.14z" fill="#d3b714"></path><path d="M210.17 553.78L227.13 553.78L227.13 584.87L210.17 584.87z" fill="#e73635"></path><path d="M129.31 74.71a51.56 51.56 0 1 0 102.24 13.4z" fill="#d3b714"></path><path d="M994.24 339.81L1046.43 339.81L1046.43 362.95L994.24 362.95z" fill="#037b0b"></path><path d="M1170.15 354.31 a65.59 65.59 0 1 0 131.18 0 a65.59 65.59 0 1 0 -131.18 0z" fill="#037b0b"></path><path d="M323.22 239.17L366.85 239.17L366.85 282.8L323.22 282.8z" stroke="#037b0b"></path><path d="M1094.16 86.96L1102.06 86.96L1102.06 94.86L1094.16 94.86z" fill="#037b0b"></path><path d="M811.57 76.55a2.46 2.46 0 1 0-4.09 2.73z" stroke="#e73635"></path></g><defs><mask id="SvgjsMask1007"><rect width="1440" height="800" fill="#ffffff"></rect></mask></defs></svg>