<svg xmlns="http://www.w3.org/2000/svg" version="1.1" xmlns:xlink="http://www.w3.org/1999/xlink" xmlns:svgjs="http://svgjs.dev/svgjs" width="1440" height="560" preserveAspectRatio="none" viewBox="0 0 1440 560"><g mask="url(&quot;#SvgjsMask1001&quot;)" fill="none"><path d="M893.93 563.97a17.11 17.11 0 1 0-32.39-11.02z" stroke="#037b0b"></path><path d="M469.59 392.12 a12.59 12.59 0 1 0 25.18 0 a12.59 12.59 0 1 0 -25.18 0z" stroke="#d3b714"></path><path d="M474.42 179.73 a20.68 20.68 0 1 0 41.36 0 a20.68 20.68 0 1 0 -41.36 0z" stroke="#e73635"></path><path d="M541.19 544.28 a34.64 34.64 0 1 0 69.28 0 a34.64 34.64 0 1 0 -69.28 0z" stroke="#d3b714"></path><path d="M293.38 109.76L318.28 109.76L318.28 134.66L293.38 134.66z" fill="#e73635"></path><path d="M782.26 469.53L788.63 469.53L788.63 511.55L782.26 511.55z" stroke="#037b0b"></path><path d="M939.49 509.14L979.75 509.14L979.75 549.4L939.49 549.4z" stroke="#e73635"></path><path d="M899.88 89.35a49.58 49.58 0 1 0 72.06 68.12z" stroke="#037b0b"></path><path d="M716.76 442.68a18.17 18.17 0 1 0 21.87-29.02z" stroke="#e73635"></path><path d="M129.85 434.43a23.92 23.92 0 1 0-47.59-4.94z" stroke="#d3b714"></path><path d="M914.25 143.18L935 143.18L935 163.93L914.25 163.93z" stroke="#e73635"></path><path d="M126.75 468.01 a49.74 49.74 0 1 0 99.48 0 a49.74 49.74 0 1 0 -99.48 0z" stroke="#d3b714"></path><path d="M1382.14 548.09a30.99 30.99 0 1 0 0.19-61.98z" stroke="#d3b714"></path><path d="M370.3 2.77 a9.68 9.68 0 1 0 19.36 0 a9.68 9.68 0 1 0 -19.36 0z" stroke="#d3b714"></path><path d="M746.54 396.79L789.86 396.79L789.86 440.11L746.54 440.11z" stroke="#e73635"></path><path d="M1026.22 69.3L1071.24 69.3L1071.24 114.32L1026.22 114.32z" stroke="#037b0b"></path><path d="M825.96 305.21L861.47 305.21L861.47 340.72L825.96 340.72z" stroke="#037b0b"></path><path d="M1409.89 390.43 a1.35 1.35 0 1 0 2.7 0 a1.35 1.35 0 1 0 -2.7 0z" stroke="#037b0b"></path><path d="M1241.04 99.16L1250.22 99.16L1250.22 130.15L1241.04 130.15z" fill="#e73635"></path><path d="M1269.88 191.04L1316.81 191.04L1316.81 210.77L1269.88 210.77z" stroke="#d3b714"></path><path d="M266.92 83.33 a49.33 49.33 0 1 0 98.66 0 a49.33 49.33 0 1 0 -98.66 0z" fill="#037b0b"></path><path d="M425.57 191.45 a25.87 25.87 0 1 0 51.74 0 a25.87 25.87 0 1 0 -51.74 0z" stroke="#d3b714"></path><path d="M766.92 324.47L774.57 324.47L774.57 332.12L766.92 332.12z" fill="#037b0b"></path><path d="M1360.01 542.82a35.88 35.88 0 1 0 37.51-61.18z" stroke="#037b0b"></path><path d="M403.09 65.92a25.48 25.48 0 1 0 13.07-49.25z" stroke="#d3b714"></path><path d="M123.74 152.34L136.59 152.34L136.59 165.19L123.74 165.19z" fill="#e73635"></path><path d="M730.56 217.35a32.07 32.07 0 1 0-63.21 10.87z" fill="#e73635"></path><path d="M22.98 488.66 a23.26 23.26 0 1 0 46.52 0 a23.26 23.26 0 1 0 -46.52 0z" stroke="#d3b714"></path><path d="M1226.08 38.03L1264.58 38.03L1264.58 76.53L1226.08 76.53z" fill="#e73635"></path><path d="M1031.62 82.55L1033.7 82.55L1033.7 84.63L1031.62 84.63z" fill="#e73635"></path><path d="M526.1 248.69L533.22 248.69L533.22 255.81L526.1 255.81z" stroke="#e73635"></path><path d="M511.88 393.77a8.56 8.56 0 1 0-6.32 15.91z" fill="#e73635"></path><path d="M147.47 244.65a45.77 45.77 0 1 0-87.51 26.87z" stroke="#d3b714"></path></g><defs><mask id="SvgjsMask1001"><rect width="1440" height="560" fill="#ffffff"></rect></mask></defs></svg>