<svg xmlns="http://www.w3.org/2000/svg" version="1.1" xmlns:xlink="http://www.w3.org/1999/xlink" xmlns:svgjs="http://svgjs.dev/svgjs" width="1440" height="120" preserveAspectRatio="none" viewBox="0 0 1440 120"><g mask="url(&quot;#SvgjsMask1639&quot;)" fill="none"><rect width="1440" height="120" x="0" y="0" fill="url(&quot;#SvgjsLinearGradient1640&quot;)"></rect><path d="M1275.16 93.99L1284.82 93.99L1284.82 103.04L1275.16 103.04z" fill="#d3b714"></path><path d="M658.23 75.87L663.71 75.87L663.71 80.92L658.23 80.92z" stroke="#e73635"></path><path d="M1164.31 20.28a11.76 11.76 0 1 0-16.62 16.65z" fill="#e73635"></path><path d="M378.76 26.3L385.52 26.3L385.52 27.67L378.76 27.67z" stroke="#e73635"></path><path d="M715.35 61.12L726.78 61.12L726.78 72.49L715.35 72.49z" fill="#d3b714"></path><path d="M880.83 5.81L892.75 5.81L892.75 12.19L880.83 12.19z" fill="#e73635"></path><path d="M383.56 12.53L388.47 12.53L388.47 17.44L383.56 17.44z" stroke="#d3b714"></path><path d="M1299.4 20.15L1300.82 20.15L1300.82 29.06L1299.4 29.06z" stroke="#037b0b"></path><path d="M138.7 38.57L143.91 38.57L143.91 44.61L138.7 44.61z" fill="#e73635"></path><path d="M752.84 4.29a6.76 6.76 0 1 0 11.48 7.14z" fill="#037b0b"></path><path d="M327.65 103.18L332.22 103.18L332.22 107.75L327.65 107.75z" fill="#d3b714"></path><path d="M1316.81 115.12L1322.13 115.12L1322.13 116.18L1316.81 116.18z" fill="#037b0b"></path><path d="M630.17 76.53L636.6 76.53L636.6 85.58L630.17 85.58z" fill="#e73635"></path><path d="M94.39 72.74L103.82 72.74L103.82 82.17L94.39 82.17z" stroke="#d3b714"></path><path d="M379.31 118.26 a5.91 5.91 0 1 0 11.82 0 a5.91 5.91 0 1 0 -11.82 0z" stroke="#037b0b"></path><path d="M99.48 104.59L107.94 104.59L107.94 108.49L99.48 108.49z" stroke="#037b0b"></path><path d="M787.3 58.18L792.34 58.18L792.34 63.22L787.3 63.22z" stroke="#e73635"></path><path d="M1041.48 61.05L1052.81 61.05L1052.81 72.38L1041.48 72.38z" stroke="#d3b714"></path><path d="M245.42 96.62 a3.81 3.81 0 1 0 7.62 0 a3.81 3.81 0 1 0 -7.62 0z" stroke="#e73635"></path><path d="M606.63 44.53L617.3 44.53L617.3 47.18L606.63 47.18z" stroke="#e73635"></path><path d="M529.79 11.18a5.33 5.33 0 1 0-1.13 10.6z" fill="#d3b714"></path><path d="M159.16 19.29L164.31 19.29L164.31 28.66L159.16 28.66z" fill="#d3b714"></path><path d="M130.77 31.01L133.6 31.01L133.6 41.31L130.77 41.31z" stroke="#037b0b"></path><path d="M335.32 101.68L345.62 101.68L345.62 111.98L335.32 111.98z" stroke="#037b0b"></path><path d="M1241.53 14.82L1244.82 14.82L1244.82 18.11L1241.53 18.11z" fill="#e73635"></path><path d="M166.17 53.91L177.41 53.91L177.41 60.46L166.17 60.46z" fill="#037b0b"></path><path d="M221.94 114.38L222.34 114.38L222.34 116.89L221.94 116.89z" fill="#037b0b"></path><path d="M677.96 68.9 a3.66 3.66 0 1 0 7.32 0 a3.66 3.66 0 1 0 -7.32 0z" stroke="#037b0b"></path><path d="M73.04 115.39L81.92 115.39L81.92 124.27L73.04 124.27z" fill="#037b0b"></path><path d="M110.36 111.21L118.39 111.21L118.39 119.24L110.36 119.24z" fill="#d3b714"></path><path d="M802.46 13.84L809.12 13.84L809.12 13.9L802.46 13.9z" fill="#e73635"></path><path d="M809.33 37.79L818.01 37.79L818.01 46.47L809.33 46.47z" fill="#d3b714"></path><path d="M1323.12 72.75a10.33 10.33 0 1 0-14.03 15.16z" fill="#e73635"></path><path d="M871.51 48.26L874.01 48.26L874.01 58.38L871.51 58.38z" fill="#d3b714"></path><path d="M64.75 110.34 a4.46 4.46 0 1 0 8.92 0 a4.46 4.46 0 1 0 -8.92 0z" fill="#d3b714"></path><path d="M652.49 30.18L663.32 30.18L663.32 41.01L652.49 41.01z" fill="#037b0b"></path><path d="M1256.31 96.73a2.13 2.13 0 1 0-0.58 4.22z" stroke="#e73635"></path><path d="M9.15 13.64L15.14 13.64L15.14 16.36L9.15 16.36z" stroke="#037b0b"></path><path d="M184.01 22.15 a9.01 9.01 0 1 0 18.02 0 a9.01 9.01 0 1 0 -18.02 0z" fill="#d3b714"></path><path d="M513.45 70.76L517.49 70.76L517.49 72.27L513.45 72.27z" stroke="#037b0b"></path><path d="M641.6 63.78 a0.32 0.32 0 1 0 0.64 0 a0.32 0.32 0 1 0 -0.64 0z" stroke="#d3b714"></path><path d="M469.06 64.13 a9.2 9.2 0 1 0 18.4 0 a9.2 9.2 0 1 0 -18.4 0z" stroke="#037b0b"></path><path d="M635.14 54.65a3.27 3.27 0 1 0 1.78 6.3z" stroke="#d3b714"></path><path d="M368.47 85.61L380.14 85.61L380.14 97.28L368.47 97.28z" fill="#d3b714"></path><path d="M838.63 5.65L840.86 5.65L840.86 7.88L838.63 7.88z" fill="#e73635"></path><path d="M80.51 3.13L86.69 3.13L86.69 9.31L80.51 9.31z" stroke="#e73635"></path><path d="M171.82 26.18L179.26 26.18L179.26 33.62L171.82 33.62z" fill="#037b0b"></path><path d="M833.47 73.92 a9.22 9.22 0 1 0 18.44 0 a9.22 9.22 0 1 0 -18.44 0z" stroke="#d3b714"></path><path d="M1073.24 37.09L1079.17 37.09L1079.17 46.49L1073.24 46.49z" fill="#d3b714"></path><path d="M693.65 101.56 a7.91 7.91 0 1 0 15.82 0 a7.91 7.91 0 1 0 -15.82 0z" fill="#e73635"></path><path d="M1028.74 40.84L1033.45 40.84L1033.45 45.55L1028.74 45.55z" fill="#d3b714"></path><path d="M975.09 42.76L982 42.76L982 42.91L975.09 42.91z" fill="#d3b714"></path><path d="M692.73 100.89L696.98 100.89L696.98 105.14L692.73 105.14z" fill="#037b0b"></path><path d="M803.95 115.34L815.66 115.34L815.66 124.74L803.95 124.74z" stroke="#d3b714"></path><path d="M534.79 11.55L536.4 11.55L536.4 16.8L534.79 16.8z" fill="#e73635"></path><path d="M414.14 65.45L420.22 65.45L420.22 71.53L414.14 71.53z" stroke="#037b0b"></path><path d="M149.75 113.54L161.29 113.54L161.29 125.08L149.75 125.08z" stroke="#d3b714"></path><path d="M669.34 64.6a0.3 0.3 0 1 0-0.23-0.55z" fill="#037b0b"></path><path d="M1016.34 42.9a5.57 5.57 0 1 0-8.81 6.82z" stroke="#037b0b"></path><path d="M1096.31 109.55 a10.28 10.28 0 1 0 20.56 0 a10.28 10.28 0 1 0 -20.56 0z" stroke="#e73635"></path><path d="M953.79 52.34L964.63 52.34L964.63 63.18L953.79 63.18z" stroke="#e73635"></path><path d="M952.23 34.45a7.98 7.98 0 1 0-12.39 10.06z" fill="#037b0b"></path><path d="M997.6 74.62L1008.28 74.62L1008.28 82.89L997.6 82.89z" fill="#e73635"></path><path d="M752.52 27.42a4.21 4.21 0 1 0-2.97 7.87z" stroke="#037b0b"></path><path d="M-0.85 119.66 a6.31 6.31 0 1 0 12.62 0 a6.31 6.31 0 1 0 -12.62 0z" stroke="#037b0b"></path><path d="M975.2 84.23L980.04 84.23L980.04 88.97L975.2 88.97z" stroke="#e73635"></path><path d="M246.26 12.29L247.53 12.29L247.53 13.56L246.26 13.56z" fill="#e73635"></path><path d="M1329.48 99.63L1330.67 99.63L1330.67 103.12L1329.48 103.12z" fill="#d3b714"></path><path d="M454.27 107.1L459.01 107.1L459.01 111.84L454.27 111.84z" fill="#037b0b"></path><path d="M11.74 78.41 a4.72 4.72 0 1 0 9.44 0 a4.72 4.72 0 1 0 -9.44 0z" stroke="#d3b714"></path><path d="M709.53 72.11 a0.18 0.18 0 1 0 0.36 0 a0.18 0.18 0 1 0 -0.36 0z" stroke="#d3b714"></path><path d="M1192.79 47.41L1203.63 47.41L1203.63 53.04L1192.79 53.04z" fill="#d3b714"></path><path d="M81.72 1.41 a0.92 0.92 0 1 0 1.84 0 a0.92 0.92 0 1 0 -1.84 0z" fill="#d3b714"></path><path d="M983.76 45.75L990.52 45.75L990.52 47.58L983.76 47.58z" fill="#037b0b"></path><path d="M385.76 36.26L393.26 36.26L393.26 39.21L385.76 39.21z" stroke="#d3b714"></path><path d="M1036.04 80.77L1036.98 80.77L1036.98 81.71L1036.04 81.71z" fill="#037b0b"></path><path d="M817.9 109.65a5.89 5.89 0 1 0 8.81 7.82z" fill="#d3b714"></path><path d="M746.75 83.47a10.49 10.49 0 1 0 13.6-15.97z" fill="#e73635"></path><path d="M398.84 17.86a9.65 9.65 0 1 0-18.97 3.55z" stroke="#037b0b"></path><path d="M1312.31 3.45 a3.38 3.38 0 1 0 6.76 0 a3.38 3.38 0 1 0 -6.76 0z" fill="#037b0b"></path><path d="M1046.35 45.75 a4.52 4.52 0 1 0 9.04 0 a4.52 4.52 0 1 0 -9.04 0z" fill="#e73635"></path><path d="M474.4 58.31 a4.22 4.22 0 1 0 8.44 0 a4.22 4.22 0 1 0 -8.44 0z" stroke="#037b0b"></path><path d="M1152.87 78.52L1160.48 78.52L1160.48 86.13L1152.87 86.13z" stroke="#037b0b"></path><path d="M1130.12 96.64L1132.91 96.64L1132.91 99.43L1130.12 99.43z" fill="#d3b714"></path><path d="M449.57 92.07L452.41 92.07L452.41 94.91L449.57 94.91z" stroke="#037b0b"></path><path d="M809.3 103.1L821.25 103.1L821.25 111.01L809.3 111.01z" fill="#d3b714"></path><path d="M474.47 18.23L476.62 18.23L476.62 20.38L474.47 20.38z" stroke="#e73635"></path><path d="M947.76 48.08a6.92 6.92 0 1 0-5.29 12.78z" stroke="#d3b714"></path><path d="M1007.04 14.23a1.85 1.85 0 1 0-3.24 1.78z" fill="#037b0b"></path><path d="M1163.72 17.22 a5.99 5.99 0 1 0 11.98 0 a5.99 5.99 0 1 0 -11.98 0z" stroke="#e73635"></path><path d="M715.28 61.94L717.6 61.94L717.6 73.81L715.28 73.81z" fill="#d3b714"></path><path d="M1335.89 11.8 a7.78 7.78 0 1 0 15.56 0 a7.78 7.78 0 1 0 -15.56 0z" fill="#e73635"></path><path d="M912.95 17.96L914.98 17.96L914.98 18.85L912.95 18.85z" stroke="#e73635"></path><path d="M1154.87 103.3L1163.21 103.3L1163.21 108.18L1154.87 108.18z" fill="#037b0b"></path><path d="M116.52 76.36a5.35 5.35 0 1 0 1.31 10.62z" fill="#e73635"></path><path d="M249.05 60.28a0.77 0.77 0 1 0 0.6 1.43z" stroke="#d3b714"></path><path d="M991.49 65.99L991.83 65.99L991.83 66.33L991.49 66.33z" fill="#037b0b"></path><path d="M358 19.12 a8.37 8.37 0 1 0 16.74 0 a8.37 8.37 0 1 0 -16.74 0z" fill="#d3b714"></path><path d="M1127.01 41.73L1132.71 41.73L1132.71 47.18L1127.01 47.18z" fill="#e73635"></path><path d="M1147.45 61.94L1154.61 61.94L1154.61 72.05L1147.45 72.05z" stroke="#037b0b"></path><path d="M717.77 48.28L717.78 48.28L717.78 57.02L717.77 57.02z" stroke="#e73635"></path><path d="M143.38 41.8L154.53 41.8L154.53 52.95L143.38 52.95z" stroke="#037b0b"></path><path d="M1042.58 42.77L1050.35 42.77L1050.35 45.85L1042.58 45.85z" fill="#037b0b"></path><path d="M236.72 113.93L247.91 113.93L247.91 125.12L236.72 125.12z" stroke="#e73635"></path><path d="M550.74 103.86L552.26 103.86L552.26 113.23L550.74 113.23z" fill="#e73635"></path><path d="M124.78 103.79L126.71 103.79L126.71 106.93L124.78 106.93z" stroke="#037b0b"></path><path d="M456.16 74.06a11.47 11.47 0 1 0 19.82-11.54z" stroke="#e73635"></path><path d="M811.04 82.56L821.23 82.56L821.23 92.75L811.04 92.75z" stroke="#037b0b"></path><path d="M917.66 78.39L919.24 78.39L919.24 79.97L917.66 79.97z" fill="#037b0b"></path><path d="M994.34 65.62 a7.23 7.23 0 1 0 14.46 0 a7.23 7.23 0 1 0 -14.46 0z" stroke="#d3b714"></path><path d="M979.33 103.48L988.51 103.48L988.51 112.66L979.33 112.66z" fill="#d3b714"></path><path d="M979.5 6.04 a5.59 5.59 0 1 0 11.18 0 a5.59 5.59 0 1 0 -11.18 0z" stroke="#037b0b"></path><path d="M806.86 20.38L808.76 20.38L808.76 22.28L806.86 22.28z" fill="#d3b714"></path><path d="M1250.77 56.77a2.13 2.13 0 1 0-4.01-1.43z" stroke="#037b0b"></path><path d="M536.62 36.11L538.35 36.11L538.35 37.84L536.62 37.84z" stroke="#037b0b"></path><path d="M916.97 92.86L919.95 92.86L919.95 95.84L916.97 95.84z" fill="#037b0b"></path><path d="M945.4 112.92a2.75 2.75 0 1 0 4.86 2.57z" stroke="#037b0b"></path><path d="M665.9 117.36a8.05 8.05 0 1 0-16.04 1.46z" stroke="#037b0b"></path><path d="M702.35 84.92 a5.59 5.59 0 1 0 11.18 0 a5.59 5.59 0 1 0 -11.18 0z" fill="#037b0b"></path><path d="M300.58 119.85L302.57 119.85L302.57 121.84L300.58 121.84z" fill="#e73635"></path><path d="M105.15 4.49L115.86 4.49L115.86 15.9L105.15 15.9z" stroke="#037b0b"></path><path d="M340.03 55.74a5.52 5.52 0 1 0-6.66-8.8z" fill="#d3b714"></path><path d="M831.87 25.37 a8.47 8.47 0 1 0 16.94 0 a8.47 8.47 0 1 0 -16.94 0z" fill="#d3b714"></path><path d="M1304.76 62.15L1311.59 62.15L1311.59 68.98L1304.76 68.98z" stroke="#d3b714"></path><path d="M1289.97 59.14 a10.72 10.72 0 1 0 21.44 0 a10.72 10.72 0 1 0 -21.44 0z" stroke="#037b0b"></path><path d="M769.36 48.75L773.77 48.75L773.77 60.27L769.36 60.27z" stroke="#d3b714"></path><path d="M1271.04 60.62L1273.41 60.62L1273.41 62.98L1271.04 62.98z" stroke="#037b0b"></path><path d="M388.1 2.65L399.81 2.65L399.81 8.75L388.1 8.75z" stroke="#037b0b"></path><path d="M896.06 73.71 a5.56 5.56 0 1 0 11.12 0 a5.56 5.56 0 1 0 -11.12 0z" stroke="#037b0b"></path><path d="M178.45 33.02 a3.46 3.46 0 1 0 6.92 0 a3.46 3.46 0 1 0 -6.92 0z" stroke="#037b0b"></path><path d="M113.3 112.01 a6.58 6.58 0 1 0 13.16 0 a6.58 6.58 0 1 0 -13.16 0z" fill="#037b0b"></path><path d="M1370.24 99.4 a7.19 7.19 0 1 0 14.38 0 a7.19 7.19 0 1 0 -14.38 0z" stroke="#d3b714"></path><path d="M1026.7 65.52L1027.22 65.52L1027.22 66.04L1026.7 66.04z" stroke="#e73635"></path><path d="M1299.08 67.49L1310.99 67.49L1310.99 79.4L1299.08 79.4z" stroke="#e73635"></path><path d="M322.58 49.95L327.45 49.95L327.45 54.82L322.58 54.82z" stroke="#037b0b"></path><path d="M119.99 107.01 a5.85 5.85 0 1 0 11.7 0 a5.85 5.85 0 1 0 -11.7 0z" fill="#037b0b"></path><path d="M713.66 75.13L715.14 75.13L715.14 76.61L713.66 76.61z" stroke="#d3b714"></path><path d="M1162.48 116.92L1170.62 116.92L1170.62 121.13L1162.48 121.13z" fill="#d3b714"></path><path d="M529.6 54.35 a4.68 4.68 0 1 0 9.36 0 a4.68 4.68 0 1 0 -9.36 0z" fill="#d3b714"></path><path d="M567.22 82.98 a1 1 0 1 0 2 0 a1 1 0 1 0 -2 0z" fill="#d3b714"></path><path d="M10.28 96.58L11.75 96.58L11.75 104.04L10.28 104.04z" stroke="#d3b714"></path><path d="M787.53 103.61L798.39 103.61L798.39 104.69L787.53 104.69z" fill="#037b0b"></path><path d="M642.28 29.01a11.17 11.17 0 1 0 1.16-22.31z" fill="#d3b714"></path><path d="M1288.41 92.7 a3.87 3.87 0 1 0 7.74 0 a3.87 3.87 0 1 0 -7.74 0z" fill="#037b0b"></path><path d="M1340.91 4.56L1347.31 4.56L1347.31 10.96L1340.91 10.96z" stroke="#d3b714"></path><path d="M170.91 75.45L180.06 75.45L180.06 82.22L170.91 82.22z" stroke="#037b0b"></path><path d="M659.14 73.11a1.68 1.68 0 1 0-1.64-2.93z" fill="#d3b714"></path><path d="M858.37 8.1L869.53 8.1L869.53 19.26L858.37 19.26z" fill="#e73635"></path><path d="M341.45 62.04L342.34 62.04L342.34 62.93L341.45 62.93z" fill="#e73635"></path><path d="M299.89 98.79 a0.51 0.51 0 1 0 1.02 0 a0.51 0.51 0 1 0 -1.02 0z" stroke="#e73635"></path></g><defs><mask id="SvgjsMask1639"><rect width="1440" height="120" fill="#ffffff"></rect></mask><linearGradient x1="100%" y1="50%" x2="0%" y2="50%" gradientUnits="userSpaceOnUse" id="SvgjsLinearGradient1640"><stop stop-color="#0e2a47" offset="0"></stop><stop stop-color="rgba(188, 182, 27, 1)" offset="1"></stop></linearGradient></defs></svg>